<?xml version="1.0" encoding="iso-8859-1"?>
<!-- Generator: Adobe Illustrator 19.0.0, SVG Export Plug-In . SVG Version: 6.00 Build 0)  -->
<svg version="1.1" id="Layer_1" xmlns="http://www.w3.org/2000/svg" xmlns:xlink="http://www.w3.org/1999/xlink" x="0px" y="0px"
	 viewBox="0 0 512 512" style="enable-background:new 0 0 512 512;" xml:space="preserve">
<g>
	<g>
		<g>
			<path d="M503.467,494.933H486.4c-4.719,0-8.533,3.823-8.533,8.533S481.681,512,486.4,512h17.067c4.719,0,8.533-3.823,8.533-8.533
				S508.186,494.933,503.467,494.933z"/>
			<path d="M290.133,247.467c0-14.114-11.486-25.6-25.6-25.6s-25.6,11.486-25.6,25.6s11.486,25.6,25.6,25.6
				S290.133,261.581,290.133,247.467z M256,247.467c0-4.702,3.831-8.533,8.533-8.533c4.71,0,8.533,3.831,8.533,8.533
				c0,4.702-3.823,8.533-8.533,8.533C259.831,256,256,252.169,256,247.467z"/>
			<path d="M221.867,384c0,14.114,11.486,25.6,25.6,25.6s25.6-11.486,25.6-25.6s-11.486-25.6-25.6-25.6S221.867,369.886,221.867,384
				z M256,384c0,4.702-3.831,8.533-8.533,8.533c-4.702,0-8.533-3.831-8.533-8.533c0-4.702,3.831-8.533,8.533-8.533
				C252.169,375.467,256,379.298,256,384z"/>
			<path d="M307.191,306.091c-0.171-4.719-4.224-8.508-8.858-8.201c-13.338,0.512-27.58,0.777-42.334,0.777
				c-55.364,0-89.028-3.661-105.361-6.118l41.6-64.452c2.551-3.959,1.417-9.242-2.543-11.802c-3.968-2.552-9.242-1.408-11.802,2.543
				l-48.529,75.204c-1.493,2.313-1.775,5.197-0.768,7.765c1.007,2.551,3.191,4.471,5.862,5.137
				c1.442,0.358,36.139,8.789,121.54,8.789c14.976,0,29.44-0.265,43-0.794C303.71,314.761,307.379,310.793,307.191,306.091z"/>
			<path d="M401.067,213.333c0,4.71,3.814,8.533,8.533,8.533c0,4.71,3.814,8.533,8.533,8.533s8.533-3.823,8.533-8.533
				c4.719,0,8.533-3.823,8.533-8.533c0-4.71-3.814-8.533-8.533-8.533c0-4.71-3.814-8.533-8.533-8.533s-8.533,3.823-8.533,8.533
				C404.881,204.8,401.067,208.623,401.067,213.333z"/>
			<path d="M192.538,143.514c3.755,2.85,9.105,2.099,11.947-1.647l51.319-67.729l71.142,99.61
				c-5.888,1.101-13.969,2.364-24.252,3.388c-2.953,0.29-5.547,2.091-6.835,4.762c-1.289,2.662-1.118,5.811,0.478,8.311
				l65.101,102.306c-7.117,1.075-17.442,2.389-31.181,3.507c-2.995,0.247-5.649,2.048-6.972,4.753
				c-1.323,2.697-1.126,5.897,0.521,8.414l3.32,5.077c1.63,2.509,4.369,3.866,7.151,3.866c1.596,0,3.217-0.444,4.659-1.391
				c1.758-1.143,2.944-2.825,3.507-4.685c23.398-2.347,34.492-4.966,35.012-5.094c2.688-0.64,4.89-2.543,5.922-5.094
				c1.033-2.56,0.777-5.453-0.708-7.782L318.02,192.495c16.887-2.372,25.429-5.018,25.873-5.154c2.603-0.819,4.668-2.833,5.53-5.436
				c0.87-2.586,0.444-5.436-1.152-7.663L264.533,56.994v-8.073l9.37,5.41c1.34,0.777,2.807,1.135,4.258,1.135
				c2.944,0,5.811-1.527,7.398-4.267c2.355-4.079,0.956-9.293-3.123-11.657l-9.361-5.402l9.37-5.41
				c4.079-2.355,5.478-7.578,3.123-11.657c-2.372-4.087-7.603-5.487-11.656-3.123l-9.378,5.41V8.533C264.533,3.823,260.71,0,256,0
				s-8.533,3.823-8.533,8.533v10.82l-9.37-5.41c-4.087-2.364-9.293-0.956-11.657,3.123c-2.355,4.087-0.956,9.301,3.123,11.665
				l9.37,5.402l-9.37,5.41c-4.079,2.355-5.478,7.569-3.123,11.657c1.587,2.739,4.454,4.267,7.398,4.267
				c1.451,0,2.918-0.367,4.258-1.143l9.37-5.402v7.945l-56.576,74.692C188.041,135.313,188.783,140.672,192.538,143.514z"/>
			<path d="M366.933,68.267h8.533V76.8c0,4.71,3.814,8.533,8.533,8.533c4.719,0,8.533-3.823,8.533-8.533v-8.533h8.533
				c4.719,0,8.533-3.823,8.533-8.533s-3.814-8.533-8.533-8.533h-8.533v-8.533c0-4.71-3.814-8.533-8.533-8.533
				c-4.719,0-8.533,3.823-8.533,8.533V51.2h-8.533c-4.719,0-8.533,3.823-8.533,8.533S362.214,68.267,366.933,68.267z"/>
			<path d="M85.333,256h8.533c4.71,0,8.533-3.823,8.533-8.533s-3.823-8.533-8.533-8.533h-8.533V230.4
				c0-4.71-3.823-8.533-8.533-8.533s-8.533,3.823-8.533,8.533v8.533h-8.533c-4.71,0-8.533,3.823-8.533,8.533S55.023,256,59.733,256
				h8.533v8.533c0,4.71,3.823,8.533,8.533,8.533s8.533-3.823,8.533-8.533V256z"/>
			<path d="M145.067,375.467c14.114,0,25.6-11.486,25.6-25.6s-11.486-25.6-25.6-25.6s-25.6,11.486-25.6,25.6
				S130.953,375.467,145.067,375.467z M145.067,341.333c4.702,0,8.533,3.831,8.533,8.533s-3.831,8.533-8.533,8.533
				c-4.702,0-8.533-3.831-8.533-8.533S140.365,341.333,145.067,341.333z"/>
			<path d="M59.733,494.933h-51.2c-4.71,0-8.533,3.823-8.533,8.533S3.823,512,8.533,512h51.2c4.71,0,8.533-3.823,8.533-8.533
				S64.444,494.933,59.733,494.933z"/>
			<path d="M94.259,420.693c0.768,2.44,2.594,4.412,4.966,5.367c1.809,0.717,45.483,17.672,156.774,17.672
				c111.3,0,154.965-16.956,156.766-17.672c2.415-0.973,4.258-2.978,5.009-5.47c0.742-2.483,0.316-5.18-1.161-7.313l-31.479-45.449
				c4.565-4.625,7.398-10.965,7.398-17.963c0-14.114-11.486-25.6-25.6-25.6s-25.6,11.486-25.6,25.6s11.486,25.6,25.6,25.6
				c0.87,0,1.69-0.171,2.543-0.256l26.436,38.144c-18.483,4.787-62.31,13.312-139.913,13.312c-78.029,0-121.907-8.619-140.203-13.38
				l12.663-19.268c2.594-3.934,1.493-9.225-2.441-11.81c-3.934-2.586-9.225-1.493-11.819,2.441l-18.927,28.8
				C93.867,415.59,93.491,418.244,94.259,420.693z M366.933,358.4c-4.71,0-8.533-3.831-8.533-8.533s3.823-8.533,8.533-8.533
				s8.533,3.831,8.533,8.533S371.644,358.4,366.933,358.4z"/>
			<path d="M196.267,204.8c8.175,0,15.386-3.917,20.079-9.907c7.049,0.521,21.274,1.374,39.654,1.374
				c6.127,0,11.904-0.085,17.331-0.256c4.71-0.145,8.414-4.079,8.269-8.798c-0.154-4.71-4.079-8.559-8.798-8.26
				c-5.265,0.162-10.863,0.247-16.802,0.247c-14.635,0-26.65-0.572-34.244-1.05c-0.563-13.619-11.733-24.55-25.489-24.55
				c-14.114,0-25.6,11.486-25.6,25.6S182.153,204.8,196.267,204.8z M196.267,170.667c4.702,0,8.533,3.831,8.533,8.533
				c0,4.702-3.831,8.533-8.533,8.533c-4.702,0-8.533-3.831-8.533-8.533C187.733,174.498,191.565,170.667,196.267,170.667z"/>
			<path d="M452.267,494.933H290.133V460.8c0-4.71-3.814-8.533-8.533-8.533c-4.719,0-8.533,3.823-8.533,8.533v34.133h-34.133V460.8
				c0-4.71-3.823-8.533-8.533-8.533s-8.533,3.823-8.533,8.533v34.133h-128c-4.71,0-8.533,3.823-8.533,8.533S89.156,512,93.867,512
				h358.4c4.719,0,8.533-3.823,8.533-8.533S456.986,494.933,452.267,494.933z"/>
			<path d="M136.533,119.467c0,4.71,3.823,8.533,8.533,8.533c4.71,0,8.533-3.823,8.533-8.533c4.71,0,8.533-3.823,8.533-8.533
				s-3.823-8.533-8.533-8.533c0-4.71-3.823-8.533-8.533-8.533c-4.71,0-8.533,3.823-8.533,8.533c-4.71,0-8.533,3.823-8.533,8.533
				S131.823,119.467,136.533,119.467z"/>
			<path d="M85.333,34.133c0,4.71,3.823,8.533,8.533,8.533c4.71,0,8.533-3.823,8.533-8.533c4.71,0,8.533-3.823,8.533-8.533
				c0-4.71-3.823-8.533-8.533-8.533c0-4.71-3.823-8.533-8.533-8.533c-4.71,0-8.533,3.823-8.533,8.533
				c-4.71,0-8.533,3.823-8.533,8.533C76.8,30.31,80.623,34.133,85.333,34.133z"/>
		</g>
	</g>
</g>
<g>
</g>
<g>
</g>
<g>
</g>
<g>
</g>
<g>
</g>
<g>
</g>
<g>
</g>
<g>
</g>
<g>
</g>
<g>
</g>
<g>
</g>
<g>
</g>
<g>
</g>
<g>
</g>
<g>
</g>
</svg>
